<svg width="1024" height="73" viewBox="0 0 1024 73" fill="none" xmlns="http://www.w3.org/2000/svg">
<rect y="0.5" width="1024" height="72" fill="#2BFAE1"/>
<path fill-rule="evenodd" clip-rule="evenodd" d="M964.955 0.5C971.881 23.7956 977.05 47.8467 980.31 72.5H974.256C970.951 47.8345 965.71 23.7819 958.69 0.5H964.955ZM47.0811 72.5C50.3406 47.8467 55.5099 23.7956 62.4358 0.5H68.7007C61.6804 23.7819 56.4391 47.8345 53.1348 72.5H47.0811ZM905.885 72.5C901.971 47.6592 895.751 23.5839 887.451 0.5H881.067C889.504 23.5614 895.829 47.6393 899.808 72.5H905.885ZM127.582 72.5H121.506C125.42 47.6592 131.64 23.5839 139.939 0.5H146.324C137.887 23.5614 131.562 47.6393 127.582 72.5ZM831.097 72.5C826.187 47.3333 818.355 23.2109 807.969 0.5H801.356C811.962 23.1679 819.965 47.296 824.981 72.5H831.097ZM202.41 72.5H196.294C201.204 47.3333 209.036 23.2109 219.423 0.5H226.035C215.429 23.1679 207.426 47.296 202.41 72.5ZM759.41 72.5C752.889 46.6957 742.406 22.4676 728.645 0.5H721.531C735.696 22.3663 746.501 46.6097 753.215 72.5H759.41ZM274.175 72.5H267.98C274.501 46.6957 284.984 22.4676 298.745 0.5H305.86C291.694 22.3663 280.889 46.6097 274.175 72.5ZM684.351 72.5C674.196 44.687 657.43 20.0536 635.953 0.5H626.849C649.5 19.5947 667.251 44.3126 677.947 72.5H684.351ZM349.444 72.5H343.04C353.194 44.687 369.961 20.0536 391.438 0.5H400.541C377.89 19.5947 360.14 44.3126 349.444 72.5ZM603.025 72.5C583.347 44.3319 550.674 25.9057 513.695 25.9057C476.717 25.9057 444.043 44.3319 424.365 72.5H431.792C450.583 47.8301 480.278 31.9057 513.695 31.9057C547.112 31.9057 576.807 47.8301 595.599 72.5H603.025Z" fill="white"/>
</svg>
