<svg width="161" height="80" viewBox="0 0 161 80" fill="none" xmlns="http://www.w3.org/2000/svg">
<path fill-rule="evenodd" clip-rule="evenodd" d="M75.8878 58.371C75.8932 58.3606 75.8986 58.3502 75.9039 58.3398H75.9051C76.7766 56.7867 78.4391 55.7372 80.3467 55.7372C82.2543 55.7372 83.9168 56.7867 84.7882 58.3398H84.7894C84.7948 58.3502 84.8002 58.3606 84.8055 58.371C84.8438 58.4403 84.8804 58.5105 84.9155 58.5817C91.6074 71.3155 104.963 80 120.347 80C142.438 80 160.347 62.0914 160.347 40C160.347 17.9086 142.438 0 120.347 0C104.969 0 91.6182 8.67745 84.9236 21.4029C84.8833 21.4855 84.8408 21.5669 84.7962 21.647C84.7891 21.6608 84.7819 21.6747 84.7748 21.6885H84.7729C83.8974 23.2272 82.2428 24.2648 80.3459 24.2648C78.4489 24.2648 76.7944 23.2272 75.9188 21.6885H75.9185C75.9176 21.6867 75.9167 21.6849 75.9158 21.6831C75.857 21.5795 75.8018 21.4737 75.7502 21.3657C69.0491 8.66058 55.7093 0 40.3467 0C18.2553 0 0.34668 17.9086 0.34668 40C0.34668 62.0914 18.2553 80 40.3467 80C55.7305 80 69.0859 71.3155 75.7779 58.5817C75.813 58.5105 75.8496 58.4403 75.8878 58.371Z" fill="#95FCF0"/>
</svg>
