<svg width="161" height="80" viewBox="0 0 161 80" fill="none" xmlns="http://www.w3.org/2000/svg">
<path fill-rule="evenodd" clip-rule="evenodd" d="M75.8798 58.3865C75.8878 58.3709 75.8959 58.3554 75.9039 58.3398H75.9056C76.7771 56.7867 78.4395 55.7372 80.3472 55.7372C82.2548 55.7372 83.9173 56.7867 84.7887 58.3398H84.7894C84.7925 58.3457 84.7955 58.3516 84.7985 58.3575C84.842 58.4356 84.8834 58.5149 84.9227 58.5955C91.6171 71.3218 104.968 80 120.347 80C142.438 80 160.347 62.0914 160.347 40C160.347 17.9086 142.438 0 120.347 0C104.969 0 91.6182 8.67745 84.9236 21.4029C84.8833 21.4855 84.8408 21.5669 84.7962 21.647C84.7891 21.6608 84.7819 21.6747 84.7748 21.6885H84.7729C83.8974 23.2272 82.2428 24.2648 80.3459 24.2648C78.4489 24.2648 76.7944 23.2272 75.9188 21.6885H75.9185C75.9176 21.6867 75.9167 21.6849 75.9158 21.6831C75.857 21.5795 75.8018 21.4737 75.7502 21.3657C69.0491 8.66058 55.7093 0 40.3467 0C18.2553 0 0.34668 17.9086 0.34668 40C0.34668 62.0914 18.2553 80 40.3467 80C55.7369 80 69.097 71.3083 75.7862 58.5659C75.8162 58.5054 75.8474 58.4456 75.8798 58.3865Z" fill="#95FCF0"/>
<circle cx="40.3467" cy="40" r="40" fill="#95FCF0"/>
<circle cx="120.362" cy="39.9551" r="29" fill="white" stroke="#3C1DFE" stroke-width="3"/>
<path d="M116.309 42.8554C116.309 41.9754 116.429 41.1887 116.669 40.4954C116.909 39.8021 117.296 39.1487 117.829 38.5354C118.389 37.9221 119.123 37.2954 120.029 36.6554C120.829 36.0687 121.469 35.5487 121.949 35.0954C122.456 34.6421 122.816 34.1887 123.029 33.7354C123.269 33.2821 123.389 32.7754 123.389 32.2154C123.389 31.3621 123.069 30.7221 122.429 30.2954C121.816 29.8421 120.949 29.6154 119.829 29.6154C118.709 29.6154 117.603 29.7887 116.509 30.1354C115.416 30.4821 114.296 30.9487 113.149 31.5354L111.029 27.2554C112.336 26.5354 113.749 25.9487 115.269 25.4954C116.789 25.0421 118.456 24.8154 120.269 24.8154C123.043 24.8154 125.189 25.4821 126.709 26.8154C128.256 28.1487 129.029 29.8421 129.029 31.8954C129.029 32.9887 128.856 33.9354 128.509 34.7354C128.163 35.5354 127.643 36.2821 126.949 36.9754C126.256 37.6421 125.389 38.3621 124.349 39.1354C123.576 39.6954 122.976 40.1754 122.549 40.5754C122.123 40.9754 121.829 41.3621 121.669 41.7354C121.536 42.1087 121.469 42.5754 121.469 43.1354V44.2954H116.309V42.8554ZM115.669 50.9754C115.669 49.7487 116.003 48.8954 116.669 48.4154C117.336 47.9087 118.149 47.6554 119.109 47.6554C120.043 47.6554 120.843 47.9087 121.509 48.4154C122.176 48.8954 122.509 49.7487 122.509 50.9754C122.509 52.1487 122.176 53.0021 121.509 53.5354C120.843 54.0421 120.043 54.2954 119.109 54.2954C118.149 54.2954 117.336 54.0421 116.669 53.5354C116.003 53.0021 115.669 52.1487 115.669 50.9754Z" fill="#3C1DFE"/>
<circle cx="40.2588" cy="39.9551" r="29" fill="white" stroke="#3C1DFE" stroke-width="3"/>
<path d="M36.1275 42.8554C36.1275 41.9754 36.2475 41.1887 36.4875 40.4954C36.7275 39.8021 37.1142 39.1487 37.6475 38.5354C38.2075 37.9221 38.9409 37.2954 39.8475 36.6554C40.6475 36.0687 41.2875 35.5487 41.7675 35.0954C42.2742 34.6421 42.6342 34.1887 42.8475 33.7354C43.0875 33.2821 43.2075 32.7754 43.2075 32.2154C43.2075 31.3621 42.8875 30.7221 42.2475 30.2954C41.6342 29.8421 40.7675 29.6154 39.6475 29.6154C38.5275 29.6154 37.4209 29.7887 36.3275 30.1354C35.2342 30.4821 34.1142 30.9487 32.9675 31.5354L30.8475 27.2554C32.1542 26.5354 33.5675 25.9487 35.0875 25.4954C36.6075 25.0421 38.2742 24.8154 40.0875 24.8154C42.8609 24.8154 45.0075 25.4821 46.5275 26.8154C48.0742 28.1487 48.8475 29.8421 48.8475 31.8954C48.8475 32.9887 48.6742 33.9354 48.3275 34.7354C47.9809 35.5354 47.4609 36.2821 46.7675 36.9754C46.0742 37.6421 45.2075 38.3621 44.1675 39.1354C43.3942 39.6954 42.7942 40.1754 42.3675 40.5754C41.9409 40.9754 41.6475 41.3621 41.4875 41.7354C41.3542 42.1087 41.2875 42.5754 41.2875 43.1354V44.2954H36.1275V42.8554ZM35.4875 50.9754C35.4875 49.7487 35.8209 48.8954 36.4875 48.4154C37.1542 47.9087 37.9675 47.6554 38.9275 47.6554C39.8609 47.6554 40.6609 47.9087 41.3275 48.4154C41.9942 48.8954 42.3275 49.7487 42.3275 50.9754C42.3275 52.1487 41.9942 53.0021 41.3275 53.5354C40.6609 54.0421 39.8609 54.2954 38.9275 54.2954C37.9675 54.2954 37.1542 54.0421 36.4875 53.5354C35.8209 53.0021 35.4875 52.1487 35.4875 50.9754Z" fill="#3C1DFE"/>
</svg>
