<svg width="41" height="40" viewBox="0 0 41 40" fill="none" xmlns="http://www.w3.org/2000/svg">
<rect x="0.347656" width="40" height="40" rx="20" fill="#3C1DFE"/>
<g clip-path="url(#clip0_234_4208)">
<path d="M28.6647 12.1561C27.135 11.4542 25.4946 10.9371 23.7796 10.6409C23.7483 10.6352 23.7171 10.6495 23.701 10.678C23.4901 11.0532 23.2564 11.5427 23.0927 11.9275C21.2481 11.6513 19.4128 11.6513 17.606 11.9275C17.4423 11.5342 17.2001 11.0532 16.9882 10.678C16.9721 10.6504 16.9409 10.6361 16.9097 10.6409C15.1956 10.9361 13.5552 11.4532 12.0246 12.1561C12.0113 12.1618 12 12.1713 11.9924 12.1837C8.88105 16.832 8.02871 21.3661 8.44684 25.844C8.44873 25.8659 8.46103 25.8869 8.47805 25.9002C10.5309 27.4078 12.5194 28.323 14.4709 28.9296C14.5022 28.9391 14.5353 28.9277 14.5551 28.902C15.0168 28.2716 15.4283 27.6068 15.7811 26.9078C15.802 26.8668 15.7821 26.8183 15.7395 26.8021C15.0868 26.5545 14.4653 26.2526 13.8674 25.9098C13.8201 25.8821 13.8163 25.8145 13.8598 25.7821C13.9856 25.6878 14.1115 25.5897 14.2316 25.4907C14.2533 25.4726 14.2836 25.4688 14.3092 25.4802C18.2369 27.2735 22.4892 27.2735 26.3706 25.4802C26.3962 25.4678 26.4265 25.4717 26.4491 25.4898C26.5693 25.5888 26.6951 25.6878 26.8219 25.7821C26.8654 25.8145 26.8625 25.8821 26.8153 25.9098C26.2174 26.2592 25.5958 26.5545 24.9422 26.8011C24.8996 26.8173 24.8807 26.8668 24.9015 26.9078C25.2619 27.6058 25.6734 28.2706 26.1266 28.901C26.1455 28.9277 26.1795 28.9391 26.2108 28.9296C28.1718 28.323 30.1603 27.4078 32.2131 25.9002C32.2311 25.8869 32.2424 25.8669 32.2443 25.845C32.7447 20.6681 31.4061 16.1711 28.6959 12.1846C28.6892 12.1713 28.6779 12.1618 28.6647 12.1561ZM16.3677 23.1175C15.1852 23.1175 14.2108 22.0318 14.2108 20.6985C14.2108 19.3653 15.1663 18.2796 16.3677 18.2796C17.5785 18.2796 18.5435 19.3748 18.5245 20.6985C18.5245 22.0318 17.5691 23.1175 16.3677 23.1175ZM24.3424 23.1175C23.1599 23.1175 22.1855 22.0318 22.1855 20.6985C22.1855 19.3653 23.141 18.2796 24.3424 18.2796C25.5533 18.2796 26.5182 19.3748 26.4993 20.6985C26.4993 22.0318 25.5533 23.1175 24.3424 23.1175Z" fill="white"/>
</g>
<defs>
<clipPath id="clip0_234_4208">
<rect width="24" height="24" fill="white" transform="translate(8.34766 8)"/>
</clipPath>
</defs>
</svg>
