<svg width="24" height="24" viewBox="0 0 24 24" fill="none" xmlns="http://www.w3.org/2000/svg">
<path d="M9.39125 0C4.21302 0 0 4.21302 0 9.39125C0 14.5695 4.21302 18.7825 9.39125 18.7825C11.5456 18.7825 13.5267 18.0455 15.113 16.8209L21.9384 23.6463C22.41 24.1179 23.1746 24.1179 23.6463 23.6463C24.1179 23.1746 24.1179 22.41 23.6463 21.9384L16.8209 15.113C18.0455 13.5267 18.7825 11.5456 18.7825 9.39125C18.7825 4.21302 14.5695 0 9.39125 0ZM9.39125 2.08694C13.4185 2.08694 16.6956 5.36397 16.6956 9.39125C16.6956 13.4185 13.4185 16.6956 9.39125 16.6956C5.36397 16.6956 2.08694 13.4185 2.08694 9.39125C2.08694 5.36397 5.36397 2.08694 9.39125 2.08694Z" fill="#3C1DFE"/>
</svg>
