<svg width="41" height="40" viewBox="0 0 41 40" fill="none" xmlns="http://www.w3.org/2000/svg">
<rect x="0.347656" width="40" height="40" rx="20" fill="#3C1DFE"/>
<g clip-path="url(#clip0_234_4212)">
<path fill-rule="evenodd" clip-rule="evenodd" d="M20.3473 8.5C17.4985 8.50148 14.7432 9.51046 12.5739 11.3465C10.4047 13.1826 8.96295 15.726 8.50659 18.522C8.05023 21.318 8.60897 24.1842 10.0829 26.6082C11.5569 29.0321 13.8499 30.8558 16.552 31.753C17.1481 31.8636 17.3726 31.4941 17.3726 31.18C17.3726 30.8658 17.3607 29.955 17.3567 28.9592C14.0184 29.6804 13.313 27.5505 13.313 27.5505C12.7686 26.1674 11.9817 25.8039 11.9817 25.8039C10.8928 25.065 12.0632 25.0788 12.0632 25.0788C13.2693 25.1637 13.9032 26.3097 13.9032 26.3097C14.9723 28.1333 16.7109 27.6058 17.3945 27.2976C17.5018 26.5251 17.8138 25.9995 18.1575 25.7012C15.4909 25.4008 12.6891 24.3774 12.6891 19.8054C12.6726 18.6197 13.1151 17.4731 13.9251 16.6027C13.8019 16.3024 13.3905 15.0892 14.0423 13.4414C14.0423 13.4414 15.0497 13.1214 17.3428 14.6644C19.3097 14.1296 21.3849 14.1296 23.3518 14.6644C25.6429 13.1214 26.6483 13.4414 26.6483 13.4414C27.3021 15.0853 26.8908 16.2984 26.7676 16.6027C27.5801 17.4732 28.0236 18.6218 28.0055 19.8094C28.0055 24.3912 25.1978 25.4008 22.5271 25.6952C22.9563 26.0667 23.3399 26.7918 23.3399 27.9061C23.3399 29.5026 23.3259 30.7868 23.3259 31.18C23.3259 31.4981 23.5425 31.8695 24.1506 31.753C26.853 30.8557 29.1462 29.0317 30.6202 26.6073C32.0941 24.183 32.6525 21.3163 32.1957 18.5201C31.7388 15.7238 30.2964 13.1804 28.1264 11.3446C25.9564 9.50886 23.2004 8.50054 20.3513 8.5H20.3473Z" fill="white"/>
<path d="M12.8912 25.6316C12.8654 25.6909 12.77 25.7087 12.6925 25.6672C12.615 25.6257 12.5574 25.5487 12.5852 25.4874C12.6131 25.4262 12.7064 25.4104 12.7839 25.4518C12.8614 25.4933 12.921 25.5724 12.8912 25.6316Z" fill="white"/>
<path d="M13.3789 26.1711C13.3377 26.1918 13.2907 26.1975 13.2457 26.1874C13.2008 26.1773 13.1607 26.152 13.1325 26.1158C13.055 26.0328 13.0391 25.9182 13.0987 25.8669C13.1583 25.8155 13.2656 25.8392 13.3431 25.9222C13.4206 26.0052 13.4385 26.1198 13.3789 26.1711Z" fill="white"/>
<path d="M13.8525 26.8568C13.779 26.9082 13.6538 26.8568 13.5842 26.754C13.565 26.7356 13.5497 26.7135 13.5393 26.6891C13.5288 26.6646 13.5234 26.6383 13.5234 26.6118C13.5234 26.5852 13.5288 26.5589 13.5393 26.5345C13.5497 26.5101 13.565 26.488 13.5842 26.4695C13.6578 26.4201 13.783 26.4695 13.8525 26.5703C13.9221 26.6711 13.924 26.8054 13.8525 26.8568Z" fill="white"/>
<path d="M14.4933 27.5212C14.4277 27.5943 14.2946 27.5746 14.1853 27.4758C14.076 27.377 14.0502 27.2427 14.1157 27.1715C14.1813 27.1004 14.3144 27.1202 14.4277 27.217C14.541 27.3138 14.5628 27.4501 14.4933 27.5212Z" fill="white"/>
<path d="M15.3938 27.9084C15.364 28.0012 15.2289 28.0427 15.0938 28.0032C14.9587 27.9637 14.8692 27.8531 14.8951 27.7582C14.9209 27.6634 15.058 27.6199 15.1951 27.6634C15.3322 27.7069 15.4197 27.8116 15.3938 27.9084Z" fill="white"/>
<path d="M16.376 27.9757C16.376 28.0725 16.2647 28.1555 16.1216 28.1574C15.9786 28.1594 15.8613 28.0804 15.8613 27.9836C15.8613 27.8868 15.9726 27.8038 16.1157 27.8018C16.2587 27.7998 16.376 27.8769 16.376 27.9757Z" fill="white"/>
<path d="M17.29 27.8229C17.3079 27.9197 17.2086 28.0205 17.0655 28.0442C16.9224 28.0679 16.7972 28.0106 16.7794 27.9158C16.7615 27.8209 16.8648 27.7182 17.0039 27.6925C17.143 27.6668 17.2722 27.7261 17.29 27.8229Z" fill="white"/>
</g>
<defs>
<clipPath id="clip0_234_4212">
<rect width="24" height="24" fill="white" transform="translate(8.34766 8)"/>
</clipPath>
</defs>
</svg>
