<svg width="35" height="36" viewBox="0 0 35 36" fill="none" xmlns="http://www.w3.org/2000/svg">
<path d="M13.4681 19.8569C13.5691 19.958 13.689 20.0382 13.821 20.093C13.9531 20.1477 14.0946 20.1759 14.2375 20.1759C14.3804 20.1759 14.5219 20.1477 14.6539 20.093C14.7859 20.0382 14.9059 19.958 15.0069 19.8569L27.6056 7.44309C27.7066 7.34198 27.8265 7.26177 27.9585 7.20704C28.0906 7.15231 28.2321 7.12415 28.375 7.12415C28.5179 7.12415 28.6594 7.15231 28.7914 7.20704C28.9234 7.26177 29.0434 7.34198 29.1444 7.44309L32.4069 10.6512C32.508 10.7522 32.5882 10.8722 32.6429 11.0042C32.6977 11.1362 32.7258 11.2777 32.7258 11.4206C32.7258 11.5635 32.6977 11.7051 32.6429 11.8371C32.5882 11.9691 32.508 12.089 32.4069 12.19L14.9525 29.6444C14.8515 29.7455 14.7316 29.8257 14.5996 29.8805C14.4675 29.9352 14.326 29.9634 14.1831 29.9634C14.0402 29.9634 13.8987 29.9352 13.7667 29.8805C13.6346 29.8257 13.5147 29.7455 13.4137 29.6444L3.68057 19.8569C3.47678 19.653 3.3623 19.3765 3.3623 19.0882C3.3623 18.7999 3.47678 18.5234 3.68057 18.3195L6.94307 15.057C7.04407 14.9558 7.16401 14.8756 7.29603 14.8209C7.42805 14.7662 7.56957 14.738 7.71248 14.738C7.85539 14.738 7.99691 14.7662 8.12893 14.8209C8.26095 14.8756 8.38089 14.9558 8.48189 15.057L13.4681 19.8569Z" fill="#2BFAE1" stroke="#3C1DFE" stroke-width="2" stroke-linecap="round" stroke-linejoin="round"/>
</svg>
