<svg width="21" height="21" viewBox="0 0 21 21" fill="none" xmlns="http://www.w3.org/2000/svg">
<mask id="path-1-outside-1_442_1404" maskUnits="userSpaceOnUse" x="0.258789" y="0.273438" width="20" height="20" fill="black">
<rect fill="white" x="0.258789" y="0.273438" width="20" height="20"/>
<path d="M18.2588 10.2734C18.2588 14.6917 14.6771 18.2734 10.2588 18.2734C5.84051 18.2734 2.25879 14.6917 2.25879 10.2734C2.25879 5.85516 5.84051 2.27344 10.2588 2.27344C14.6771 2.27344 18.2588 5.85516 18.2588 10.2734Z"/>
</mask>
<path d="M18.2588 10.2734C18.2588 14.6917 14.6771 18.2734 10.2588 18.2734C5.84051 18.2734 2.25879 14.6917 2.25879 10.2734C2.25879 5.85516 5.84051 2.27344 10.2588 2.27344C14.6771 2.27344 18.2588 5.85516 18.2588 10.2734Z" fill="#2BFAE1"/>
<path d="M16.2588 10.2734C16.2588 13.5871 13.5725 16.2734 10.2588 16.2734V20.2734C15.7816 20.2734 20.2588 15.7963 20.2588 10.2734H16.2588ZM10.2588 16.2734C6.94508 16.2734 4.25879 13.5871 4.25879 10.2734H0.258789C0.258789 15.7963 4.73594 20.2734 10.2588 20.2734V16.2734ZM4.25879 10.2734C4.25879 6.95973 6.94508 4.27344 10.2588 4.27344V0.273438C4.73594 0.273438 0.258789 4.75059 0.258789 10.2734H4.25879ZM10.2588 4.27344C13.5725 4.27344 16.2588 6.95973 16.2588 10.2734H20.2588C20.2588 4.75059 15.7816 0.273438 10.2588 0.273438V4.27344Z" fill="#3C1DFE" mask="url(#path-1-outside-1_442_1404)"/>
<path d="M6.30234 10.2642L9.08406 12.9801L13.4617 7.11774" stroke="#3C1DFE" stroke-width="2"/>
</svg>
