<svg width="21" height="21" viewBox="0 0 21 21" fill="none" xmlns="http://www.w3.org/2000/svg">
<mask id="path-1-outside-1_442_2539" maskUnits="userSpaceOnUse" x="-0.528196" y="-0.432385" width="21.3464" height="21.3464" fill="black">
<rect fill="white" x="-0.528196" y="-0.432385" width="21.3464" height="21.3464"/>
<path d="M18.1255 9.68277C18.4337 14.0903 15.1106 17.9131 10.7031 18.2213C6.29555 18.5295 2.4727 15.2064 2.1645 10.7989C1.85629 6.39136 5.17944 2.56851 9.58696 2.26031C13.9945 1.9521 17.8173 5.27525 18.1255 9.68277Z"/>
</mask>
<path d="M18.1255 9.68277C18.4337 14.0903 15.1106 17.9131 10.7031 18.2213C6.29555 18.5295 2.4727 15.2064 2.1645 10.7989C1.85629 6.39136 5.17944 2.56851 9.58696 2.26031C13.9945 1.9521 17.8173 5.27525 18.1255 9.68277Z" fill="white"/>
<path d="M16.1304 9.82228C16.3615 13.1279 13.8692 15.9951 10.5635 16.2262L10.8426 20.2165C16.352 19.8312 20.5059 15.0526 20.1207 9.54326L16.1304 9.82228ZM10.5635 16.2262C7.25791 16.4574 4.39078 13.965 4.15963 10.6594L0.169369 10.9384C0.554623 16.4478 5.33318 20.6017 10.8426 20.2165L10.5635 16.2262ZM4.15963 10.6594C3.92847 7.35372 6.42083 4.48659 9.72647 4.25544L9.44744 0.265179C3.93805 0.650434 -0.215885 5.42899 0.169369 10.9384L4.15963 10.6594ZM9.72647 4.25544C13.0321 4.02428 15.8992 6.51665 16.1304 9.82228L20.1207 9.54326C19.7354 4.03386 14.9568 -0.120075 9.44744 0.265179L9.72647 4.25544Z" fill="#3C1DFE" mask="url(#path-1-outside-1_442_2539)"/>
<path d="M6.19761 10.5078L9.16201 13.0231L13.12 6.86961" stroke="#3C1DFE" stroke-width="2"/>
</svg>
