<svg width="33" height="32" viewBox="0 0 33 32" fill="none" xmlns="http://www.w3.org/2000/svg">
<path fill-rule="evenodd" clip-rule="evenodd" d="M0.34668 0L16.3467 0C25.1832 0 32.3467 7.16343 32.3467 16C32.3467 24.8365 25.1832 32 16.3467 32C7.51013 32 0.34668 24.8365 0.34668 16L0.34668 0ZM1.90473 1.55805L1.90473 16C1.90473 23.976 8.37061 30.4419 16.3467 30.4419C24.3228 30.4419 30.7886 23.976 30.7886 16C30.7886 8.02392 24.3228 1.55805 16.3467 1.55805L1.90473 1.55805Z" fill="#3C1DFE"/>
<path fill-rule="evenodd" clip-rule="evenodd" d="M3.2373 2.88965L16.3472 2.88965C23.5877 2.88965 29.4572 8.75916 29.4572 15.9996C29.4572 23.24 23.5877 29.1095 16.3472 29.1095C9.10683 29.1095 3.2373 23.24 3.2373 15.9996L3.2373 2.88965ZM4.79536 4.4477L4.79536 15.9996C4.79536 22.3795 9.96732 27.5515 16.3472 27.5515C22.7272 27.5515 27.8991 22.3795 27.8991 15.9996C27.8991 9.61965 22.7272 4.4477 16.3472 4.4477L4.79536 4.4477Z" fill="#3C1DFE"/>
<path fill-rule="evenodd" clip-rule="evenodd" d="M6.31946 5.97363L16.3467 5.97363C21.8846 5.97363 26.3739 10.463 26.3739 16.0008C26.3739 21.5387 21.8846 26.028 16.3467 26.028C10.8088 26.028 6.31946 21.5387 6.31946 16.0008L6.31946 5.97363ZM7.87751 7.53168L7.87751 16.0008C7.87751 20.6782 11.6693 24.47 16.3467 24.47C21.0241 24.47 24.8158 20.6782 24.8158 16.0008C24.8158 11.3235 21.0241 7.53168 16.3467 7.53168L7.87751 7.53168Z" fill="#3C1DFE"/>
<path fill-rule="evenodd" clip-rule="evenodd" d="M9.40222 9.05566L16.3467 9.05566C20.182 9.05566 23.2912 12.1648 23.2912 16.0001C23.2912 19.8355 20.182 22.9446 16.3467 22.9446C12.5114 22.9446 9.40222 19.8355 9.40222 16.0001L9.40222 9.05566ZM10.9603 10.6137L10.9603 16.0001C10.9603 18.975 13.3719 21.3866 16.3467 21.3866C19.3216 21.3866 21.7331 18.975 21.7331 16.0001C21.7331 13.0253 19.3216 10.6137 16.3467 10.6137L10.9603 10.6137Z" fill="#3C1DFE"/>
<path fill-rule="evenodd" clip-rule="evenodd" d="M12.3397 11.9941L16.346 11.9941C18.5586 11.9941 20.3522 13.7878 20.3522 16.0004C20.3522 18.213 18.5586 20.0066 16.346 20.0066C14.1334 20.0066 12.3397 18.213 12.3397 16.0004L12.3397 11.9941ZM13.8978 13.5522L13.8978 16.0004C13.8978 17.3525 14.9939 18.4486 16.346 18.4486C17.6981 18.4486 18.7942 17.3525 18.7942 16.0004C18.7942 14.6483 17.6981 13.5522 16.346 13.5522L13.8978 13.5522Z" fill="#3C1DFE"/>
</svg>
