<svg width="46" height="34" viewBox="0 0 46 34" fill="none" xmlns="http://www.w3.org/2000/svg">
<path fill-rule="evenodd" clip-rule="evenodd" d="M13.8647 0.987084V4.65749C8.18808 5.88871 3.95231 10.9064 3.95231 16.8879C3.95231 23.7889 9.59031 29.4058 16.5735 29.4074V29.3985H23.7847V17.2373L27.3859 20.8385V33.0041H16.5765V33.0131C7.62543 33.0131 0.346679 25.8059 0.34668 16.8879C0.34668 8.88997 6.20083 2.26904 13.8647 0.987084ZM31.893 32.79C39.5606 31.5111 45.4186 24.8885 45.4186 16.8879C45.4186 7.96983 38.1399 0.762696 29.1888 0.762695V0.771653L18.375 0.771652L18.375 12.9328L21.9806 16.5384V4.37729L29.1919 4.37729V4.36833C36.175 4.36998 41.813 9.98689 41.813 16.8879C41.813 22.8721 37.5734 27.8916 31.893 29.1199V32.79ZM31.893 27.2847C36.5607 26.0942 40.0102 21.8887 40.0102 16.8834C40.0102 10.9527 35.1673 6.14498 29.1933 6.14498L27.3905 6.14498L27.3905 10.7828C28.2103 10.4135 29.1198 10.208 30.0773 10.208C33.6936 10.208 36.6253 13.1396 36.6253 16.756C36.6253 19.7424 34.6261 22.2619 31.893 23.049V27.2847ZM13.8647 6.49305V10.7289C11.1355 11.5186 9.14003 14.0361 9.14003 17.0197C9.14003 20.6361 12.0717 23.5678 15.6881 23.5678C16.6456 23.5678 17.5551 23.3622 18.3749 22.9929L18.3749 27.6308H16.572C10.598 27.6308 5.75514 22.823 5.75514 16.8924C5.75514 11.8898 9.20087 7.68621 13.8647 6.49305ZM18.3717 12.9296V6.15394H18.3749L18.375 12.9328L18.3717 12.9296ZM18.3749 22.9929C20.1114 22.2106 21.4455 20.6931 21.9806 18.8371L21.9806 27.6308L18.3749 27.6308L18.3749 22.9929ZM27.3905 10.7828C25.6539 11.5652 24.3198 13.0826 23.7847 14.9386L23.7847 6.14498L27.3905 6.14498L27.3905 10.7828Z" fill="#3C1DFE"/>
</svg>
